<svg width="25" height="18" viewBox="0 0 25 18" fill="none" xmlns="http://www.w3.org/2000/svg">
<path d="M23.4023 9.00005H11.3936V14.3348C11.3934 14.645 11.3066 14.949 11.143 15.2126C10.9794 15.4762 10.7454 15.6888 10.4675 15.8266C10.1896 15.9644 9.87875 16.0218 9.56993 15.9925C9.26111 15.9633 8.96667 15.8483 8.71962 15.6607L3.24333 11.5017C2.85694 11.209 2.5436 10.8308 2.32785 10.3968C2.1121 9.96277 1.99981 9.48475 1.99981 9.00005C1.99981 8.51536 2.1121 8.03723 2.32785 7.6032C2.5436 7.16916 2.85694 6.79096 3.24333 6.49833L8.71962 2.33927C8.96667 2.15166 9.26111 2.03674 9.56993 2.00745C9.87875 1.97816 10.1896 2.0356 10.4675 2.17341C10.7454 2.31122 10.9794 2.52385 11.143 2.7874C11.3066 3.05096 11.3934 3.35502 11.3936 3.66523V4.80117" stroke="#FD5D69" stroke-width="2.15865" stroke-linecap="round" stroke-linejoin="round"/>
</svg>
