<svg width="32" height="32" viewBox="0 0 32 32" fill="none" xmlns="http://www.w3.org/2000/svg">
<path d="M21.4789 7.37932L18.5254 3.41752C18.194 2.97614 17.7696 2.61895 17.2849 2.37329C16.8002 2.12764 16.2678 2 15.7282 2C15.1887 2 14.6563 2.12764 14.1716 2.37329C13.6869 2.61895 13.2627 2.97614 12.9313 3.41752L9.97784 7.37932C9.56295 7.93752 9.00375 8.3622 8.36524 8.60399L3.82279 10.3002C3.30418 10.4835 2.83367 10.7889 2.44814 11.1925C2.0626 11.5961 1.77246 12.0868 1.60074 12.6262C1.42902 13.1656 1.38019 13.7388 1.45825 14.301C1.53631 14.8632 1.73919 15.3989 2.05068 15.8662L4.76797 20.0117C5.14155 20.5952 5.3465 21.2773 5.35867 21.9775L5.51211 26.9802C5.52348 27.5468 5.66131 28.103 5.91447 28.6052C6.16762 29.1075 6.5294 29.5421 6.97156 29.8753C7.41371 30.2086 7.92405 30.4314 8.46302 30.5261C9.00199 30.6208 9.55481 30.585 10.0782 30.4214L14.7213 29.0255C15.3713 28.8283 16.0618 28.8283 16.7118 29.0255L21.3549 30.4214C21.8783 30.585 22.4311 30.6208 22.9701 30.5261C23.5091 30.4314 24.0194 30.2086 24.4616 29.8753C24.9037 29.5421 25.2655 29.1075 25.5186 28.6052C25.7718 28.103 25.9096 27.5468 25.921 26.9802L26.0744 21.9775C26.0905 21.2779 26.2951 20.5969 26.6651 20.0117L29.3824 15.8662C29.6885 15.3992 29.8874 14.8658 29.9642 14.3068C30.041 13.7478 29.9936 13.1782 29.8255 12.6411C29.6573 12.1041 29.373 11.6139 28.9942 11.2082C28.6154 10.8025 28.152 10.4919 27.6397 10.3002L23.0915 8.60399C22.453 8.3622 21.8938 7.93752 21.4789 7.37932Z" stroke="#FD5D69" stroke-width="2.19829" stroke-linecap="round" stroke-linejoin="round"/>
</svg>
