<svg width="32" height="32" viewBox="0 0 32 32" fill="none" xmlns="http://www.w3.org/2000/svg">
<path d="M21.985 7.37932L19.0315 3.41752C18.7001 2.97614 18.2757 2.61895 17.791 2.37329C17.3063 2.12764 16.7739 2 16.2343 2C15.6948 2 15.1624 2.12764 14.6777 2.37329C14.193 2.61895 13.7688 2.97614 13.4374 3.41752L10.4839 7.37932C10.069 7.93752 9.50986 8.3622 8.87135 8.60399L4.32889 10.3002C3.81028 10.4835 3.33978 10.7889 2.95424 11.1925C2.5687 11.5961 2.27856 12.0868 2.10684 12.6262C1.93512 13.1656 1.8863 13.7388 1.96436 14.301C2.04241 14.8632 2.2453 15.3989 2.55679 15.8662L5.27407 20.0117C5.64765 20.5952 5.8526 21.2773 5.86477 21.9775L6.01822 26.9802C6.02958 27.5468 6.16742 28.103 6.42057 28.6052C6.67373 29.1075 7.03551 29.5421 7.47766 29.8753C7.91982 30.2086 8.43015 30.4314 8.96912 30.5261C9.50809 30.6208 10.0609 30.585 10.5843 30.4214L15.2274 29.0255C15.8774 28.8283 16.568 28.8283 17.2179 29.0255L21.861 30.4214C22.3844 30.585 22.9372 30.6208 23.4762 30.5261C24.0152 30.4314 24.5255 30.2086 24.9677 29.8753C25.4098 29.5421 25.7716 29.1075 26.0247 28.6052C26.2779 28.103 26.4157 27.5468 26.4271 26.9802L26.5805 21.9775C26.5966 21.2779 26.8012 20.5969 27.1712 20.0117L29.8885 15.8662C30.1946 15.3992 30.3935 14.8658 30.4703 14.3068C30.5471 13.7478 30.4997 13.1782 30.3316 12.6411C30.1634 12.1041 29.8791 11.6139 29.5003 11.2082C29.1215 10.8025 28.6581 10.4919 28.1458 10.3002L23.5976 8.60399C22.9591 8.3622 22.3999 7.93752 21.985 7.37932Z" fill="#FD5D69" stroke="#FD5D69" stroke-width="2.19829" stroke-linecap="round" stroke-linejoin="round"/>
</svg>
