<svg width="19" height="18" viewBox="0 0 19 18" fill="none" xmlns="http://www.w3.org/2000/svg">
<path d="M17.2808 9.00005H8.3132V14.3348C8.31305 14.645 8.24826 14.949 8.12609 15.2126C8.00392 15.4762 7.82919 15.6888 7.62166 15.8266C7.41413 15.9644 7.18201 16.0218 6.9514 15.9925C6.72078 15.9633 6.50091 15.8483 6.31643 15.6607L2.227 11.5017C1.93846 11.209 1.70447 10.8308 1.54336 10.3968C1.38225 9.96277 1.2984 9.48475 1.2984 9.00005C1.2984 8.51536 1.38225 8.03723 1.54336 7.6032C1.70447 7.16916 1.93846 6.79096 2.227 6.49833L6.31643 2.33927C6.50091 2.15166 6.72078 2.03674 6.9514 2.00745C7.18201 1.97816 7.41413 2.0356 7.62166 2.17341C7.82919 2.31122 8.00392 2.52385 8.12609 2.7874C8.24826 3.05096 8.31305 3.35502 8.3132 3.66523V4.80117" stroke="#FD5D69" stroke-width="2.15865" stroke-linecap="round" stroke-linejoin="round"/>
</svg>
