<svg width="16" height="25" viewBox="0 0 16 25" fill="none" xmlns="http://www.w3.org/2000/svg">
<path d="M3.45946 7.88026C1.17872 12.4639 -0.192867 20.4465 5.47416 22.8413C6.67846 23.3439 7.97045 23.6026 9.2754 23.6026C10.5804 23.6026 11.8723 23.3439 13.0766 22.8413C18.0183 20.7855 18.0183 13.2907 14.4578 7.95311M6.7507 10.9213V19.5026M11.5118 10.9213V19.5026M5.64519 3.46767C5.64519 2.26711 7.1213 1.28516 8.93006 1.28516H9.33553C11.1443 1.28516 12.6205 2.26711 12.6205 3.46767M2.49014 3.70208H15.7723C16.4966 3.70208 17.0838 4.28923 17.0838 5.01351V6.56885C17.0838 7.29314 16.4966 7.88028 15.7723 7.88028H2.49014C1.76586 7.88028 1.17871 7.29314 1.17871 6.56885V5.01351C1.17871 4.28923 1.76586 3.70208 2.49014 3.70208Z" stroke="#EC888D" stroke-width="1.54522" stroke-linecap="round" stroke-linejoin="round"/>
</svg>
